<?xml version="1.0" encoding="utf-8"?>
<!-- Generator: Adobe Illustrator 16.0.4, SVG Export Plug-In . SVG Version: 6.00 Build 0)  -->
<!DOCTYPE svg PUBLIC "-//W3C//DTD SVG 1.1//EN" "http://www.w3.org/Graphics/SVG/1.1/DTD/svg11.dtd">
<svg version="1.1" id="Layer_1" xmlns="http://www.w3.org/2000/svg" xmlns:xlink="http://www.w3.org/1999/xlink" x="0px" y="0px"
	 width="500px" height="500px" viewBox="0 0 500 500" enable-background="new 0 0 500 500" xml:space="preserve">
<rect x="214.826" y="216.023" transform="matrix(-0.9482 0.3175 -0.3175 -0.9482 566.4447 407.6793)" fill="#99999B" width="70.349" height="67.955"/>
<rect x="214.826" y="216.023" transform="matrix(-0.9482 0.3175 -0.3175 -0.9482 566.4447 407.6793)" fill="#99999B" width="70.349" height="67.955"/>
<path fill="#99999B" d="M479.045,181.249C427.467,9.375,353.128-30.608,181.245,20.969C9.368,72.524-30.61,146.872,20.961,318.758
	c51.562,171.875,125.9,211.844,297.79,160.277C490.628,427.473,530.606,353.135,479.045,181.249 M392.307,292.771l-32.385,10.801
	l11.201,33.561c4.389,13.588-2.804,28.391-16.396,32.795c-2.804,0.805-6.001,1.586-8.792,1.188
	c-10.401-0.383-20.391-7.176-23.988-17.586l-11.2-33.584l-66.741,22.387l11.201,33.586c4.385,13.588-2.803,28.375-16.401,32.779
	c-2.797,0.795-6,1.586-8.791,1.189c-10.401-0.395-20.391-7.191-23.982-17.584l-11.2-33.572l-32.375,10.799
	c-2.791,0.795-6,1.586-8.791,1.203c-10.39-0.408-20.391-7.203-23.982-17.598c-4.401-13.586,2.792-28.389,16.384-32.781
	l32.375-10.779l-21.579-64.373l-32.379,10.79c-2.792,0.805-5.995,1.609-8.797,1.2c-10.385-0.396-20.386-7.189-23.983-17.584
	c-4.395-13.587,2.804-28.373,16.39-32.779l32.38-10.79l-11.189-33.573c-4.407-13.59,2.792-28.378,16.39-32.782
	c13.587-4.393,28.377,2.797,32.768,16.384l11.2,33.586l66.752-22.389l-11.189-33.573c-4.407-13.598,2.792-28.386,16.385-32.791
	c13.592-4.381,28.383,2.809,32.779,16.395l11.188,33.585l32.386-10.801c13.581-4.382,28.367,2.795,32.774,16.395
	c4.396,13.587-2.804,28.39-16.39,32.782l-32.381,10.779l21.591,64.374l32.368-10.803c13.599-4.393,28.383,2.797,32.784,16.398
	C413.081,273.576,405.889,288.376,392.307,292.771"/>
</svg>
