<?xml version="1.0" encoding="utf-8"?>
<!-- Generator: Adobe Illustrator 16.0.4, SVG Export Plug-In . SVG Version: 6.00 Build 0)  -->
<!DOCTYPE svg PUBLIC "-//W3C//DTD SVG 1.1//EN" "http://www.w3.org/Graphics/SVG/1.1/DTD/svg11.dtd">
<svg version="1.1" id="Layer_1" xmlns="http://www.w3.org/2000/svg" xmlns:xlink="http://www.w3.org/1999/xlink" x="0px" y="0px"
	 width="500px" height="500px" viewBox="0 0 500 500" enable-background="new 0 0 500 500" xml:space="preserve">
<path fill="#99999B" d="M500.945,94.933c-18.401,8.16-38.174,13.672-58.922,16.166c21.226-12.716,37.482-32.797,45.111-56.733
	c-19.842,11.751-41.759,20.264-65.186,24.835c-18.641-19.911-45.337-32.379-74.852-32.379c-56.62,0-102.548,45.951-102.548,102.586
	c0,8.05,0.862,15.845,2.648,23.348c-85.235-4.292-160.81-45.083-211.455-107.171c-8.823,15.185-13.861,32.797-13.861,51.601
	c0,35.558,18.106,66.968,45.621,85.379c-16.786-0.519-32.615-5.16-46.501-12.817v1.277c0,49.708,35.382,91.172,82.323,100.555
	c-8.597,2.412-17.634,3.645-27.03,3.645c-6.597,0-13.031-0.632-19.282-1.837c13.05,40.734,50.903,70.405,95.807,71.191
	c-35.118,27.553-79.367,43.933-127.39,43.933c-8.282,0-16.458-0.466-24.483-1.419c45.4,29.084,99.322,46.076,157.244,46.076
	c188.713,0,291.86-156.274,291.86-291.869c0-4.446-0.082-8.889-0.29-13.267C469.814,133.562,487.254,115.504,500.945,94.933"/>
</svg>
