<?xml version="1.0" encoding="utf-8"?>
<!-- Generator: Adobe Illustrator 16.0.4, SVG Export Plug-In . SVG Version: 6.00 Build 0)  -->
<!DOCTYPE svg PUBLIC "-//W3C//DTD SVG 1.1//EN" "http://www.w3.org/Graphics/SVG/1.1/DTD/svg11.dtd">
<svg version="1.1" id="Layer_1" xmlns="http://www.w3.org/2000/svg" xmlns:xlink="http://www.w3.org/1999/xlink" x="0px" y="0px"
	 width="500px" height="500px" viewBox="0 0 500 500" enable-background="new 0 0 500 500" xml:space="preserve">
<g>
	<path fill="#99999B" d="M447.905,389.271c-3.21-3.429-5.664-9.174-5.677-13.835c-0.371-85.94-0.261-171.947-0.396-257.888
		c-0.01-6.57,1.996-11.202,6.806-15.525c10.231-9.401,20.353-19.004,30.077-28.923c2.653-2.691,3.666-6.874,6.285-11.942
		c-5.083,0-7.406,0-9.73,0c-37.651,0-75.303,0.196-112.95-0.189c-6.612-0.045-9.109,2.258-11.399,8.009
		c-28.003,70.424-56.333,140.703-84.493,210.999c-1.147,2.666-2.285,5.287-4.079,9.218c-2.2-4.354-3.71-7.436-5.112-10.567
		c-31.84-69.697-63.751-139.428-95.302-209.356c-2.963-6.521-6.41-8.336-13.206-8.293c-38.888,0.37-77.715,0.181-116.539,0.181
		c-2.934,0-5.865,0-11.25,0c2.363,5.281,3.399,9.473,5.804,12.565c12.09,14.993,24.273,29.925,36.937,44.415
		c6.01,6.893,8.631,14.125,8.539,23.337c-0.278,67.008-0.267,133.954,0.003,200.964c0.09,8.966-2.349,16.045-7.951,22.788
		c-14.564,17.279-28.869,34.56-43.028,52.202c-2.519,3.018-3.705,7.308-6.241,12.461c48.681,0,94.488,0,142.677,0
		c-2.524-5.149-3.762-9.446-6.274-12.461c-14.296-17.808-29.312-35.074-43.213-53.129c-4.169-5.479-7.539-13.234-7.59-20.013
		c-0.616-56.021-0.297-111.985-0.273-168.076c0.001-2.13,0.262-4.26,0.552-8.839c2.439,4.84,3.792,7.371,4.972,9.951
		c37.47,81.847,75.025,163.62,112.318,245.582c2.516,5.512,5.417,7.94,11.859,7.915c6.614-0.027,7.609-4.135,9.375-8.601
		c32.54-82.626,65.098-165.242,97.669-247.855c0.662-1.866,1.658-3.65,3.665-7.453c0,71.503,0.07,140.58-0.309,209.718
		c-0.014,4.11-2.752,8.931-5.655,12.074c-10.028,10.532-20.931,20.216-31.026,30.689c-2.502,2.693-3.577,6.901-5.679,11.456
		c62.873,0,123.171,0,185.865,0c-2.446-4.637-3.421-8.692-5.858-11.329C468.153,409.306,457.504,399.78,447.905,389.271z"/>
	<path fill="#99999B" d="M298.067,430.85c2.102-4.555,3.177-8.763,5.679-11.456c10.096-10.474,20.998-20.157,31.026-30.689
		c2.903-3.144,5.642-7.964,5.655-12.074c0.379-69.138,0.309-138.214,0.309-209.718c-2.007,3.803-3.003,5.587-3.665,7.453
		c-32.571,82.613-65.13,165.229-97.669,247.855c-1.765,4.466-2.761,8.573-9.375,8.601c-6.442,0.025-9.343-2.403-11.859-7.915
		c-37.292-81.962-74.848-163.734-112.318-245.582c-1.18-2.581-2.533-5.111-4.972-9.951c-0.29,4.579-0.551,6.709-0.552,8.839
		c-0.024,56.091-0.343,112.055,0.273,168.076c0.051,6.778,3.421,14.534,7.59,20.013c13.901,18.055,28.917,35.321,43.213,53.129
		c2.513,3.015,3.75,7.312,6.274,12.461c-48.189,0-93.996,0-142.677,0c2.537-5.153,3.722-9.443,6.241-12.461
		c14.159-17.643,28.463-34.923,43.028-52.202c5.603-6.743,8.042-13.822,7.951-22.788c-0.27-67.01-0.281-133.956-0.003-200.964
		c0.092-9.212-2.529-16.444-8.539-23.337c-12.663-14.49-24.847-29.422-36.937-44.415c-2.404-3.093-3.44-7.284-5.804-12.565
		c5.385,0,8.316,0,11.25,0c38.824,0,77.651,0.189,116.539-0.181c6.796-0.043,10.243,1.772,13.206,8.293
		c31.55,69.928,63.462,139.659,95.302,209.356c1.402,3.132,2.912,6.214,5.112,10.567c1.794-3.931,2.932-6.552,4.079-9.218
		c28.16-70.296,56.49-140.575,84.493-210.999c2.29-5.751,4.787-8.054,11.399-8.009c37.647,0.385,75.299,0.189,112.95,0.189
		c2.324,0,4.647,0,9.73,0c-2.619,5.068-3.632,9.251-6.285,11.942c-9.725,9.919-19.846,19.522-30.077,28.923
		c-4.81,4.323-6.815,8.955-6.806,15.525c0.136,85.941,0.025,171.947,0.396,257.888c0.013,4.661,2.467,10.406,5.677,13.835
		c9.599,10.509,20.248,20.034,30.169,30.249c2.438,2.637,3.412,6.692,5.858,11.329C421.238,430.85,360.94,430.85,298.067,430.85z"/>
</g>
</svg>
