<?xml version="1.0" encoding="utf-8"?>
<!-- Generator: Adobe Illustrator 16.0.4, SVG Export Plug-In . SVG Version: 6.00 Build 0)  -->
<!DOCTYPE svg PUBLIC "-//W3C//DTD SVG 1.1//EN" "http://www.w3.org/Graphics/SVG/1.1/DTD/svg11.dtd">
<svg version="1.1" id="Layer_1" xmlns="http://www.w3.org/2000/svg" xmlns:xlink="http://www.w3.org/1999/xlink" x="0px" y="0px"
	 width="500px" height="500px" viewBox="0 0 500 500" enable-background="new 0 0 500 500" xml:space="preserve">
<path fill="#99999B" d="M0,500C0,333.334,0,166.667,0,0c166.667,0,333.333,0,500,0c0,166.667,0,333.334,0,500
	C333.333,500,166.667,500,0,500z M78.099,378.463c35.086,0,68.069,0,102.791,0c-1.818-3.737-2.671-6.753-4.48-8.998
	c-10.319-12.806-21.165-25.2-31.156-38.252c-3.015-3.939-5.423-9.515-5.474-14.369c-0.424-40.375-0.233-80.757-0.209-121.137
	c0.001-1.553,0.198-3.106,0.424-6.403c1.734,3.494,2.702,5.319,3.561,7.194c27.018,58.955,54.057,117.899,80.961,176.906
	c1.811,3.971,3.878,5.758,8.525,5.732c4.754-0.026,5.493-2.98,6.745-6.164c23.434-59.54,46.887-119.072,70.353-178.6
	c0.533-1.353,1.273-2.625,2.638-5.401c0,51.56,0.071,101.335-0.18,151.108c-0.014,2.956-1.983,6.493-4.117,8.739
	c-7.205,7.583-15.031,14.573-22.304,22.097c-1.86,1.924-2.552,4.977-4.14,8.25c45.303,0,88.8,0,133.924,0
	c-1.678-3.354-2.396-6.256-4.191-8.123c-7.1-7.394-14.799-14.226-21.705-21.785c-2.312-2.531-4.125-6.608-4.137-9.987
	c-0.243-61.958-0.133-123.917-0.269-185.875c-0.01-4.711,1.483-8.06,4.882-11.165c7.41-6.772,14.709-13.682,21.74-20.844
	c1.885-1.921,2.641-4.95,4.49-8.608c-3.671,0-5.354,0-7.037,0c-27.134,0-54.269,0.132-81.4-0.125
	c-4.689-0.045-6.545,1.617-8.193,5.765c-20.18,50.737-40.559,101.394-60.896,152.068c-0.762,1.897-1.644,3.749-2.924,6.652
	c-1.559-3.198-2.684-5.383-3.702-7.616c-22.927-50.268-45.925-100.505-68.626-150.875c-2.13-4.725-4.614-6.028-9.551-5.985
	c-27.987,0.242-55.976,0.117-83.964,0.117c-2.099,0-4.197,0-8.107,0c1.722,3.807,2.437,6.844,4.2,9.039
	c8.691,10.825,17.477,21.588,26.612,32.039c4.343,4.969,6.195,10.149,6.166,16.796c-0.213,48.284-0.202,96.57,0.003,144.855
	c0.027,6.401-1.707,11.556-5.77,16.376c-10.461,12.412-20.789,24.94-30.973,37.581C80.796,371.713,79.93,374.725,78.099,378.463z"/>
</svg>
