<svg xmlns="http://www.w3.org/2000/svg" width="151" height="74" viewBox="0 0 151 74" xmlns:xlink="http://www.w3.org/1999/xlink">
  <defs>
    <polygon id="a" points="150.688 .299 150.688 74 0 74 0 .299"/>
  </defs>
  <g fill="none" fill-rule="evenodd">
    <path fill="#000000" d="M94.1897705,47.9080753 C88.3424574,51.3132515 87.6930446,51.9058927 83.6549957,49.6855624 C83.2770374,49.4776794 82.8692061,49.2453396 82.4254407,48.9889797 C81.8691104,48.6671104 81.2564976,48.3068089 80.5711506,47.9072019 L65.3428528,39.0402927 L65.2424103,39.0979409 C64.9822122,39.2499226 63.784262,39.9927987 63.4963557,39.9927987 C63.2088822,39.9927987 62.010932,39.2499226 61.750734,39.0975042 C61.490103,38.9459592 60.253188,38.2716496 60.1098842,38.0200937 C59.9657146,37.7694113 60.0046794,36.350042 60.0051123,36.0478255 C60.0046794,35.7438621 59.9657146,34.3266764 60.1098842,34.0746838 C60.253188,33.8240013 61.48967,33.1496917 61.750734,32.99771 C62.011365,32.8461651 63.2088822,32.1024156 63.4963557,32.1024156 C63.784262,32.1024156 64.9826451,32.8461651 65.2424103,32.99771 C65.5026083,33.149255 66.7395233,33.8240013 66.8823941,34.0746838 C67.0269967,34.3266764 66.9880319,35.745609 66.9880319,36.0473888 L66.9888978,36.1814646 C72.3036924,39.2730693 81.9825412,44.8977022 82.2154639,45.0330882 C82.5167914,45.2086533 83.2419691,45.6519332 84.0636928,46.1266577 C84.464597,46.3589975 84.8880141,46.5978883 85.2975772,46.8153793 C86.1967975,47.2966547 87.0245823,47.681413 87.3813265,47.681413 C88.2303255,47.681413 91.7739548,45.4833558 92.5445914,45.0339617 C93.3152279,44.5850043 96.9748857,42.5891527 97.3996017,41.8458399 C97.8251835,41.1029638 97.7087222,36.9081816 97.7087222,36.0107035 C97.7087222,35.1132254 97.8251835,30.9180065 97.4004675,30.1755672 C96.9744527,29.4331278 93.3156609,27.4368395 92.5445914,26.9878821 C92.2172873,26.7970315 91.3877707,26.2895524 90.4772939,25.7689714 L90.4768609,22 C91.4557425,22.5070424 92.6402715,23.211923 94.1897705,24.1142052 C101.26837,28.2360536 100.998648,27.7643863 100.998648,36.0107035 C100.998648,44.256584 101.267937,43.7849167 94.1897705,47.9080753"/>
    <path fill="#000000" d="M80 48C79.6367359 47.6376077 79.304475 47.3066396 79 47L80 48M57 24L57.0171149 23.9830688 57.0339242 23.9661376 57.0507335 23.9492063 57.0675428 23.9322751 57.0840465 23.915873C57.4018949 23.5968254 57.6971271 23.3 57.9712714 23.0285714L57.9856357 23.0142857 58 23 57.8673594 23.1322751 57.6946822 23.3047619 57.5323961 23.4671958 57.3814181 23.6179894 57.2420538 23.7582011 57.1146088 23.8851852 57 24"/>
    <path fill="#000000" d="M70.3775466,46.9729868 C63.3168728,51.0092181 63.8545205,51.0087907 56.7934148,46.9729868 C49.7323091,42.9376104 50.0013489,43.3997123 50.0013489,35.3289595 C50.0013489,28.2349901 49.7949267,27.731423 54.5378858,24.9742008 C55.191268,24.5946019 55.9383607,24.1718278 56.7934148,23.6836498 C57.6281721,23.2061588 67.1676391,17.7498512 72.028492,14.9780947 L72.0293557,14.8609662 C72.0293557,14.5634427 71.9904896,13.1762821 72.1338623,12.9300557 C72.277235,12.6846843 73.5110175,12.023806 73.7714204,11.8754717 C74.0305277,11.7267099 75.2254442,10.9995727 75.5121896,11.0000002 C75.7993668,11.0000002 76.9942833,11.7267099 77.2533906,11.8754717 C77.5137934,12.0246609 78.7471442,12.6838294 78.8905169,12.9300557 C79.0338896,13.1758546 78.9950235,14.5647252 78.9950235,14.8609662 C78.9954553,15.1584898 79.0338896,16.5460779 78.890085,16.7923042 C78.7471442,17.0376756 77.5142253,17.6981265 77.2533906,17.8464608 C76.9938514,17.99565 75.7993668,18.7227872 75.5121896,18.7227872 C75.2254442,18.7223598 74.029664,17.99565 73.7714204,17.8464608 L73.6561176,17.7819119 C68.6419596,20.6391635 58.7544252,26.3130566 58.4348595,26.4960165 C58.0850647,26.6956479 57.139323,27.2086195 56.172421,27.777163 C55.0137795,28.4568503 53.8231815,29.2160483 53.5912805,29.6165936 C53.1667764,30.3437308 53.2825109,34.4492133 53.2825109,35.3289595 C53.2825109,36.2061409 53.1667764,40.3133333 53.5912805,41.0396156 C54.0149209,41.7667528 57.6653109,43.7203195 58.4339958,44.1601927 C59.2026808,44.5996383 62.737768,46.7519815 63.5859126,46.7511266 C64.4336253,46.7515541 67.9678488,44.5996383 68.7369656,44.1601927 C69.0634408,43.9733855 69.909858,43.5138485 70.8089603,42.99019 L74.0383009,44.8347503 C73.1154471,45.4225302 71.9218261,46.0902482 70.3775466,46.9729868"/>
    <mask id="b" fill="white">
      <use xlink:href="#a"/>
    </mask>
    <path fill="#000000" d="M77.2756562,30.1340117 L77.0221146,40.2919181 L73.680212,38.3674854 L73.8684212,30.1534854 L64.8715903,24.7610058 L68.0927794,22.8872047 C69.0065673,23.4255439 69.8749255,23.8981053 70.2037507,24.0928421 L75.5008653,27.2224795 L84.2848252,21.8594269 L84.2843926,21.986655 L84.2839599,25.7169474 L84.2839599,25.7191111 L77.2756562,30.1340117" mask="url(#b)"/>
    <path fill="#000000" d="M88.9749112 12.7037661C88.9766418 13.030924 88.9766418 13.3762573 88.9766418 13.7427953L88.9753438 32.8330643 89.0783181 32.8936491C89.3392149 33.0438129 90.5753381 33.7128421 90.7189828 33.9616725 90.8626275 34.2109357 90.8236877 35.6160702 90.8236877 35.9159649 90.8241203 36.2171579 90.8626275 37.6227251 90.7185501 37.8706901 90.5753381 38.1199532 89.3392149 38.788117 89.0783181 38.9387135 88.8178539 39.0893099 87.6219685 39.8254152 87.3351117 39.8254152 87.046957 39.8254152 85.8489083 39.0893099 85.5897421 38.9387135 85.3297106 38.788117 84.0931547 38.1195205 83.9503754 37.8706901 83.8058653 37.6218596 83.8448052 36.2162924 83.8448052 35.9159649 83.8448052 35.6156374 83.805 34.2105029 83.9503754 33.9616725 84.0922894 33.7124094 85.3292779 33.0438129 85.5897421 32.8936491L85.693149 32.8330643 85.693149 12.2589006C85.6702178 10.9974386 85.5940688 9.74246784 85.3790344 9.3694386 84.9537249 8.63463158 81.2964097 6.65653801 80.5266991 6.21123977 79.7565559 5.76637427 76.2143295 3.58748538 75.3650086 3.58791813 74.5156877 3.58748538 70.975192 5.76550877 70.2037507 6.21080702 69.4336074 6.65523977 65.7771576 8.63419883 65.3522808 9.36900585 64.9269713 10.1059766 65.0433582 14.2620936 65.0433582 15.1518246 65.0433582 15.5412982 65.0208596 16.5569591 65.0316762 17.6379649L61.8018338 19.5083041C61.7425587 18.3931111 61.7559713 16.9923041 61.7559713 15.1518246 61.7555387 6.98109942 61.4859885 7.44803509 68.56049 3.36332164 75.6354241-.72225731 75.0954585-.72225731 82.1699599 3.36375439 88.1896246 6.83915789 88.8922722 7.01918129 88.9679885 12.0286784L88.9749112 12.7037661zM59.2521404 61.6965263L59.2521404 66.3875205C59.1227736 66.1668187 58.9510057 65.9751111 58.7342407 65.8063392 58.5161777 65.6375673 58.2730201 65.4938947 58.0090946 65.3796491 57.7425731 65.2649708 57.4795129 65.1788538 57.2108281 65.1191345 56.9443066 65.0585497 56.6950917 65.0299883 56.4692407 65.0299883 55.8475014 65.0299883 55.2746533 65.1247602 54.7511289 65.3104094 54.2267393 65.4999532 53.7720086 65.7803743 53.3852063 66.1499415 52.998404 66.5221053 52.697702 66.9860117 52.483533 67.5386316 52.2684986 68.0916842 52.1598997 68.7330175 52.1564384 69.4634971 52.1598997 70.1593567 52.2710946 70.7833801 52.4887249 71.3303743 52.706788 71.8773684 53.0126819 72.3417076 53.4051089 72.7225263 53.7971032 73.1063743 54.2583238 73.3954503 54.7883381 73.5958129 55.3179198 73.7935789 55.8933639 73.8935439 56.5202951 73.8965731 56.8668596 73.8996023 57.2077994 73.8567602 57.5426819 73.7706433 57.8779971 73.6845263 58.1899484 73.5417193 58.4815645 73.3413567 58.7770745 73.1435906 59.0314814 72.8744211 59.2521404 72.5390409L59.3892951 73.707462 61.3475358 73.707462 61.3475358 61.6965263 59.2521404 61.6965263zM56.6574499 66.9890409C56.9897364 66.9890409 57.3047163 67.049193 57.6002264 67.1669006 57.8948711 67.2841754 58.1553352 67.4529474 58.3816189 67.6710526 58.6104986 67.8908889 58.7883238 68.1518363 58.9168252 68.4525965 59.046192 68.7559532 59.1115244 69.0909006 59.114553 69.4634971 59.1115244 69.8469123 59.046192 70.1905146 58.9168252 70.4973333 58.7883238 70.8037193 58.6104986 71.0672632 58.3816189 71.2819064 58.1553352 71.4995789 57.8948711 71.6657544 57.6002264 71.7804327 57.3047163 71.8951111 56.9897364 71.9548304 56.6574499 71.9548304 56.3199713 71.9548304 56.0080201 71.8920819 55.7155387 71.774807 55.4265186 71.6545029 55.1721117 71.4852982 54.9514527 71.2650292 54.7333897 71.0443275 54.5620544 70.7807836 54.438745 70.4769942 54.3158682 70.1710409 54.2552951 69.8330643 54.2526991 69.4634971 54.2552951 69.0796491 54.3158682 68.7360468 54.438745 68.4322573 54.5620544 68.1258713 54.7333897 67.868386 54.9514527 67.6533099 55.1721117 67.4386667 55.4265186 67.272924 55.7155387 67.1608421 56.0080201 67.0465965 56.3199713 66.9890409 56.6574499 66.9890409zM44.3572235 68.4841871C44.4632264 68.1172164 44.6293696 67.8108304 44.8582493 67.5676257 45.084533 67.3239883 45.3592751 67.1405029 45.6772837 67.0176023 45.9978883 66.8947018 46.3474814 66.834117 46.7282264 66.834117 47.1319026 66.834117 47.4897163 66.8947018 47.8016676 67.0176023 48.1140516 67.1405029 48.3688911 67.3239883 48.5635903 67.5676257 48.7582894 67.8108304 48.8785702 68.1172164 48.9270287 68.4841871L44.3572235 68.4841871zM50.9371891 70.2195088C51.0172321 69.3462222 50.9713696 68.584152 50.8052264 67.9281053 50.6395158 67.272924 50.364341 66.7285263 49.983596 66.290152 49.602851 65.854807 49.1303811 65.5259181 48.5692149 65.3078129 48.007616 65.0875439 47.3694355 64.9784912 46.6594327 64.9784912 45.9693324 64.9815205 45.3475931 65.0905731 44.7950802 65.3078129 44.2425673 65.5259181 43.7705301 65.8323041 43.3781032 66.2274035 42.9856762 66.6255322 42.6849742 67.0920351 42.4759971 67.630807 42.2670201 68.1721754 42.1610172 68.7646082 42.1584212 69.412 42.1610172 70.0935789 42.2644241 70.7089474 42.4759971 71.262 42.6849742 71.8176491 42.9913009 72.292807 43.3923811 72.6879064 43.7934613 73.0860351 44.2797765 73.3924211 44.8556533 73.6070643 45.4280688 73.8195439 46.0835559 73.9281637 46.813894 73.931193 47.2491547 73.931193 47.6870115 73.8822924 48.1313582 73.7818947 48.5778682 73.6789006 49.001447 73.5270058 49.4025272 73.3240468 49.8031748 73.120655 50.1523352 72.8653333 50.4560659 72.5563509L49.1161032 71.2334386C48.9495272 71.3991813 48.7409828 71.5424211 48.4861433 71.6601287 48.2313037 71.7774035 47.9591576 71.866117 47.6731662 71.9292982 47.3867421 71.9920468 47.1115673 72.0236374 46.8485072 72.0236374 46.355702 72.0206082 45.9260659 71.9435789 45.5682521 71.788655 45.2078424 71.6341637 44.9214183 71.4225497 44.7094126 71.1529474 44.5004355 70.8837778 44.3684728 70.5717661 44.3226103 70.2195088L50.9371891 70.2195088zM36.5411347 63.0713684L36.5411347 65.2537193 34.9601777 65.2537193 34.9601777 67.057848 36.5411347 67.057848 36.5411347 70.7180351C36.5437307 71.4225497 36.6722321 72.0093567 36.921447 72.4732632 37.1706619 72.9397661 37.522851 73.2863977 37.9749857 73.5101287 38.4305817 73.7334269 38.965788 73.8333918 39.5814699 73.8108889 39.7908797 73.8048304 39.9912034 73.7875205 40.1802779 73.7619883 40.3684871 73.7364561 40.5549656 73.698807 40.7414441 73.6473099 40.9244613 73.5958129 41.1161318 73.5296023 41.3168883 73.4495439L40.7327908 71.6631579C40.5753009 71.7401871 40.4087249 71.8029357 40.2313324 71.8492398 40.0565358 71.8951111 39.8852006 71.9202105 39.7190573 71.9202105 39.4983983 71.9202105 39.3062951 71.8773684 39.1431805 71.788655 38.9800659 71.7003743 38.8515645 71.5653567 38.7598395 71.3879298 38.6681146 71.2100702 38.6196562 70.9867719 38.6196562 70.7180351L38.6196562 67.057848 40.9729198 67.057848 40.9729198 65.2537193 38.6365301 65.2537193 38.6365301 62.8485029 36.5411347 63.0713684zM33.9464441 66.1127251C33.6228109 65.8292749 33.2905244 65.6059766 32.9495845 65.4428304 32.60951 65.276655 32.2508309 65.1619766 31.8735473 65.0931696 31.4953983 65.0273918 31.0860974 64.9927719 30.647808 64.9953684 30.3358567 64.9953684 30.0122235 65.0243626 29.6829656 65.0819181 29.3506791 65.1416374 29.0300745 65.2368421 28.7207192 65.3627719 28.4113639 65.4912982 28.1340258 65.6570409 27.8878395 65.8638947 27.6386246 66.069883 27.4443582 66.3217427 27.2981175 66.613848 27.1518768 66.9085497 27.0774585 67.2495556 27.0744298 67.6420585 27.0774585 68.0259064 27.1488481 68.3578246 27.2864355 68.6417076 27.4235903 68.9251579 27.6100688 69.1657661 27.8476017 69.3630994 28.0855673 69.5608655 28.3546848 69.7209825 28.6553868 69.8469123 28.9556562 69.9732749 29.2706361 70.067614 29.6003266 70.1364211 29.9321805 70.2021988 30.2553811 70.2480702 30.579447 70.2710058 30.9800946 70.2939415 31.3037278 70.3367836 31.549914 70.4029942 31.7991289 70.4683392 31.9795501 70.5661404 32.0937736 70.6890409 32.2079971 70.8123743 32.2655415 70.9698947 32.2629456 71.1641988 32.2603496 71.3706199 32.1854986 71.5541053 32.0422865 71.7055673 31.8990745 71.8604912 31.7130287 71.9777661 31.4811203 72.0608538 31.2522407 72.1439415 31.0030258 72.1837544 30.7339083 72.1781287 30.4937794 72.1725029 30.2385072 72.141345 29.963765 72.0807602 29.6885903 72.0206082 29.4164441 71.9379532 29.1447307 71.8314971 28.8725845 71.7228772 28.6207736 71.5999766 28.391894 71.4597661 28.1599857 71.3160936 27.9678825 71.1616023 27.8134212 70.9928304L26.7828138 72.4875439C27.0917364 72.8082105 27.4067163 73.0691579 27.7273209 73.2664912 28.0479255 73.4672865 28.3741547 73.6217778 28.7038453 73.7278012 29.0300745 73.8333918 29.362361 73.9052281 29.6972436 73.9450409 30.0295301 73.9826901 30.3644126 74.0025965 30.6997278 73.9995673 31.3063238 73.996538 31.8363381 73.9221053 32.2910688 73.7736725 32.7466648 73.6274035 33.1248138 73.4270409 33.4285444 73.1691228 33.7314097 72.9116374 33.9607221 72.6165029 34.1125874 72.2815556 34.2640201 71.9492047 34.341467 71.5913216 34.341467 71.2156959 34.3388711 70.7690994 34.2640201 70.3882807 34.118212 70.0788655 33.9719713 69.769883 33.7742436 69.5149942 33.5254613 69.3172281 33.2766791 69.1198947 32.995447 68.9649708 32.6839284 68.8537544 32.3685158 68.7416725 32.0453152 68.6585848 31.707404 68.6075205 31.3694928 68.5555906 31.0406676 68.5183743 30.7166017 68.5010643 30.1783668 68.4664444 29.7772865 68.372538 29.519851 68.217614 29.2619828 68.0631228 29.1334814 67.8480468 29.1360774 67.5732515 29.139106 67.3036491 29.2706361 67.0976608 29.5341289 66.9513918 29.8006504 66.8059883 30.1813954 66.7315556 30.6819885 66.7315556 31.0860974 66.7259298 31.4607851 66.7826199 31.8073496 66.8972982 32.153914 67.0119766 32.4771146 67.2067135 32.7782493 67.4871345L33.9464441 66.1127251zM17.0076189 65.2368421L17.0076189 69.6867953C17.0102149 70.3454386 17.0958825 70.9322456 17.2706791 71.4450526 17.442447 71.9604561 17.6856046 72.3958012 18.0005845 72.7510877 18.3129685 73.1089708 18.6824642 73.3785731 19.1090716 73.5642222 19.5352464 73.7503041 20.0020917 73.845076 20.5117708 73.845076 20.9041977 73.845076 21.2624441 73.7987719 21.5886734 73.707462 21.9118739 73.6135556 22.2212292 73.4724795 22.5106819 73.2838012 22.8027307 73.0972865 23.0917507 72.8597076 23.3812034 72.5736608L23.5183582 73.707462 25.3909312 73.707462 25.3909312 65.2368421 23.3119771 65.2368421 23.3119771 69.5578363C23.3119771 69.8841287 23.257894 70.1905146 23.1549198 70.4769942 23.0515129 70.7639064 22.9057049 71.0157661 22.7140344 71.2334386 22.5219312 71.4537076 22.2930516 71.6255088 22.0295587 71.7484094 21.7660659 71.8717427 21.4709885 71.934924 21.147788 71.9379532 20.7008453 71.934924 20.3261576 71.8314971 20.0224269 71.637193 19.7186963 71.4394269 19.489384 71.1702573 19.3349226 70.8292515 19.1804613 70.4917076 19.1030143 70.1022339 19.1030143 69.6694854L19.1030143 65.2368421 17.0076189 65.2368421zM9.32825215 65.2368421L11.2691862 65.2368421 11.4236476 66.216152C11.6417106 65.872117 11.8822722 65.6116023 12.1427364 65.4367719 12.4032006 65.2649708 12.6723181 65.1476959 12.9557135 65.0931696 13.2395415 65.035614 13.522937 65.0074854 13.811957 65.0131111 14.1070344 65.0131111 14.3904298 65.0503275 14.6651719 65.1191345 14.9373181 65.1875088 15.1886963 65.2853099 15.4154126 65.405614 15.6442923 65.5259181 15.8363954 65.6626667 15.9938854 65.8201871L15.0489456 67.6420585C14.9083295 67.5217544 14.7655501 67.4213567 14.6197421 67.338269 14.4735014 67.2582105 14.3129828 67.195462 14.1381862 67.1552164 13.9633897 67.1119415 13.7634986 67.0920351 13.5372149 67.0920351 13.2594441 67.0920351 12.9959513 67.1296842 12.7441404 67.2067135 12.4918968 67.2867719 12.2660458 67.4101053 12.0683181 67.5788772 11.8705903 67.7480819 11.713533 67.9709474 11.5988768 68.2431462 11.4842206 68.5183743 11.4266762 68.8507251 11.4236476 69.2401988L11.4236476 73.707462 9.32825215 73.707462 9.32825215 65.2368421zM3.81350716 73.707462L6.08153582 73.707462 6.08153582 63.724386 9.89504298 63.724386 9.89504298 61.6623392 7.36698281 61.6623392 4.94189685 61.6623392 2.51940688 61.6623392 0 61.6623392 0 63.724386 3.81350716 63.724386 3.81350716 73.707462 3.81350716 73.707462zM144.070441 68.4841871C144.176444 68.1172164 144.342155 67.8108304 144.5719 67.5676257 144.797751 67.3239883 145.072926 67.1405029 145.390501 67.0176023 145.711106 66.8947018 146.060266 66.834117 146.441444 66.834117 146.844688 66.834117 147.202934 66.8947018 147.514885 67.0176023 147.826837 67.1405029 148.082109 67.3239883 148.276808 67.5676257 148.471507 67.8108304 148.591788 68.1172164 148.640246 68.4841871L144.070441 68.4841871zM150.649974 70.2195088C150.73045 69.3462222 150.684587 68.584152 150.518877 67.9281053 150.352734 67.272924 150.077991 66.7285263 149.696814 66.290152 149.315636 65.854807 148.843599 65.5259181 148.282433 65.3078129 147.720834 65.0875439 147.082653 64.9784912 146.37265 64.9784912 145.68255 64.9815205 145.060811 65.0905731 144.508298 65.3078129 143.956218 65.5259181 143.483315 65.8323041 143.091321 66.2274035 142.698894 66.6255322 142.398192 67.0920351 142.189215 67.630807 141.980238 68.1721754 141.874235 68.7646082 141.871206 69.412 141.874235 70.0935789 141.977209 70.7089474 142.189215 71.262 142.398192 71.8176491 142.704519 72.292807 143.105166 72.6879064 143.506679 73.0860351 143.993427 73.3924211 144.568871 73.6070643 145.141287 73.8195439 145.797206 73.9281637 146.527112 73.931193 146.962372 73.931193 147.400662 73.8822924 147.844576 73.7818947 148.290653 73.6789006 148.715097 73.5270058 149.115745 73.3240468 149.51596 73.120655 149.865553 72.8653333 150.169284 72.5563509L148.829321 71.2334386C148.663178 71.3991813 148.454201 71.5424211 148.199361 71.6601287 147.944521 71.7774035 147.672375 71.866117 147.385951 71.9292982 147.09996 71.9920468 146.824785 72.0236374 146.561292 72.0236374 146.069352 72.0206082 145.639284 71.9435789 145.28147 71.788655 144.92106 71.6341637 144.634636 71.4225497 144.42263 71.1529474 144.213653 70.8837778 144.081691 70.5717661 144.035828 70.2195088L150.649974 70.2195088zM139.56943 71.2503158C139.308966 71.5052047 139.019946 71.6882573 138.698908 71.7973099 138.381332 71.9063626 138.051642 71.9574269 137.714163 71.9548304 137.384473 71.9548304 137.07555 71.9007368 136.786097 71.7942807 136.497077 71.6882573 136.24267 71.5307368 136.022444 71.3247485 135.801785 71.115731 135.626989 70.8552164 135.50065 70.5483977 135.375178 70.2394152 135.311576 69.8841287 135.308547 69.4803743 135.311576 68.9848772 135.420607 68.5495322 135.630017 68.1721754 135.835966 67.7965497 136.124986 67.5048772 136.488857 67.2928304 136.855324 67.0838129 137.276307 66.9747602 137.748777 66.971731 138.043421 66.971731 138.338499 67.0262573 138.630115 67.1379064 138.925625 67.2495556 139.197771 67.4187602 139.449149 67.6420585L140.771805 66.2499064C140.465479 65.9469825 140.150931 65.7029123 139.832923 65.5198596 139.515347 65.336807 139.18306 65.2022222 138.836928 65.1191345 138.487335 65.035614 138.112215 64.9927719 137.714163 64.9953684 137.095453 64.9953684 136.514384 65.0875439 135.973553 65.2740585 135.432722 65.4597076 134.956791 65.7375322 134.541865 66.1101287 134.129536 66.4822924 133.805903 66.9487953 133.570966 67.5105029 133.336461 68.071345 133.218777 68.7273918 133.213152 69.4803743 133.218777 70.2307602 133.336461 70.8894035 133.570966 71.4506784 133.805903 72.012386 134.129536 72.4788889 134.541865 72.8510526 134.956791 73.2236491 135.432722 73.5014737 135.973553 73.6871228 136.514384 73.8736374 137.095453 73.9653801 137.714163 73.9653801 138.338499 73.9684094 138.916971 73.8649825 139.449149 73.6563977 139.981759 73.4439181 140.491871 73.099883 140.978186 72.6247251L139.56943 71.2503158zM131.90737 73.707462L131.90737 69.257076C131.904341 68.5897778 131.81002 67.9999415 131.627003 67.484538 131.443986 66.9691345 131.185685 66.5337895 130.859456 66.1789357 130.532794 65.8262456 130.152481 65.557076 129.720249 65.3735906 129.284989 65.190538 128.818143 65.0987953 128.317117 65.0987953 127.789699 65.0987953 127.300788 65.2048187 126.848221 65.419462 126.399115 65.6319415 125.957364 65.9495789 125.534218 66.3706433L125.396198 65.2190994 123.523625 65.2190994 123.523625 73.707462 125.602579 73.707462 125.602579 69.3773801C125.602579 69.0536842 125.657095 68.7472982 125.760069 68.463848 125.863043 68.1778012 126.009284 67.925076 126.201387 67.708269 126.393057 67.4901637 126.621504 67.3187953 126.88543 67.195462 127.148923 67.0716959 127.443567 67.0089474 127.767633 67.0063509 128.213711 67.0089474 128.589264 67.1089123 128.892129 67.3066784 129.19586 67.5048772 129.425172 67.773614 129.579633 68.1146199 129.734527 68.4525965 129.811542 68.8390409 129.811542 69.274386L129.811542 73.707462 131.90737 73.707462zM117.219266 66.902924C117.631596 66.9059532 117.992006 66.980386 118.301361 67.1236257 118.610716 67.2668655 118.868585 67.4616023 119.074533 67.7052398 119.280481 67.9484444 119.435375 68.2232398 119.53835 68.5296257 119.641324 68.8329825 119.693244 69.1484561 119.693244 69.472152 119.693244 69.7954152 119.641324 70.1104561 119.53835 70.4142456 119.435375 70.7206316 119.280481 70.9928304 119.074533 71.2390643 118.868585 71.482269 118.610716 71.6770058 118.301361 71.8202456 117.992006 71.9634854 117.631596 72.0379181 117.219266 72.0405146 116.869673 72.0405146 116.543011 71.9807953 116.239713 71.866117 115.936415 71.7484094 115.673355 71.5800702 115.44361 71.3593684 115.214731 71.1356374 115.034742 70.8664678 114.908404 70.5483977 114.77947 70.2281637 114.713705 69.8672515 114.710676 69.4634971 114.713705 69.0593099 114.77947 68.6988304 114.908404 68.381193 115.034742 68.066152 115.214731 67.7965497 115.44361 67.575848 115.673355 67.3586082 115.936415 67.1894035 116.239713 67.0751579 116.543011 66.9604795 116.869673 66.902924 117.219266 66.902924zM119.727424 66.4043977C119.564309 66.1213801 119.34365 65.8781754 119.06588 65.6747836 118.788109 65.4683626 118.475725 65.3104094 118.126564 65.1996257 117.777837 65.0875439 117.410937 65.0299883 117.030192 65.0299883 116.408885 65.0273918 115.830413 65.1191345 115.29737 65.3052164 114.762596 65.4912982 114.295751 65.7717193 113.89467 66.1443158 113.49359 66.5164795 113.182072 66.980386 112.955355 67.5360351 112.732533 68.088655 112.617877 68.7330175 112.614848 69.4634971 112.617877 70.2082573 112.726908 70.8608421 112.944106 71.4225497 113.162169 71.9864211 113.465034 72.4559532 113.857461 72.8341754 114.24686 73.2149942 114.70808 73.4984444 115.238095 73.6871228 115.767244 73.8762339 116.348745 73.9684094 116.978272 73.9653801 117.219266 73.9593216 117.471077 73.9281637 117.740195 73.8649825 118.006284 73.8018012 118.270209 73.707462 118.527645 73.5845614 118.78508 73.4612281 119.016989 73.3067368 119.228994 73.1232515 119.438404 72.9371696 119.604115 72.7194971 119.727424 72.4702339L119.830398 73.707462 121.805946 73.707462 121.805946 65.2368421 119.795785 65.2368421 119.727424 66.4043977zM108.904315 62.8485029C108.907344 63.120269 108.969648 63.3461637 109.087332 63.5266199 109.204585 63.7101053 109.359479 63.8446901 109.545524 63.936 109.73157 64.0281754 109.931894 64.0710175 110.140871 64.0710175 110.350281 64.0710175 110.550605 64.0281754 110.73665 63.936 110.922696 63.8446901 111.07759 63.7101053 111.194842 63.5266199 111.312095 63.3461637 111.375264 63.120269 111.378292 62.8485029 111.375264 62.5763041 111.312095 62.3499766 111.194842 62.1660585 111.07759 61.9860351 110.922696 61.8514503 110.73665 61.7597076 110.550605 61.6679649 110.350281 61.6220936 110.140871 61.6220936 109.931894 61.6220936 109.73157 61.6679649 109.545524 61.7597076 109.359479 61.8514503 109.204585 61.9860351 109.087332 62.1660585 108.969648 62.3499766 108.907344 62.5763041 108.904315 62.8485029zM109.09339 73.707462L111.188785 73.707462 111.188785 65.2022222 109.09339 65.2022222 109.09339 73.707462zM105.176476 73.707462L107.25543 73.707462 107.25543 61.6965263 105.176476 61.6965263 105.176476 73.707462zM101.259562 73.707462L103.338516 73.707462 103.338516 61.6965263 101.259562 61.6965263 101.259562 73.707462zM96.1740201 69.325883L91.7071891 69.325883 93.9406046 64.1939181 96.1740201 69.325883zM98.0980802 73.707462L100.572057 73.707462 95.1775931 61.6623392 92.7040487 61.6623392 87.3095845 73.707462 89.7666877 73.707462 90.7968625 71.4394269 97.085212 71.4394269 98.0980802 73.707462 98.0980802 73.707462z" mask="url(#b)"/>
    <path fill="#CEE3F0" d="M81.0306511,73.8145096 L83.2564164,73.8145096 L83.2564164,64.0225673 L87,64.0225673 L87,62 L84.5185753,62 L82.1382252,62 L79.7604232,62 L77.2874922,62 L77.2874922,64.0225673 L81.0306511,64.0225673 L81.0306511,73.8145096 Z M72.0766276,67.2077394 C72.4227446,67.2107106 72.7344621,67.2811715 73.012205,67.4157264 C73.2907973,67.5532524 73.529894,67.7387429 73.7265224,67.9692264 C73.9231508,68.2022567 74.0717899,68.4662729 74.1788101,68.7583036 C74.2828576,69.0507587 74.3363677,69.3542499 74.3363677,69.6683527 C74.3363677,69.9858512 74.2883784,70.2918892 74.1957975,70.5843444 C74.1006684,70.8734038 73.9596735,71.1348732 73.768566,71.3649323 C73.5800066,71.5924446 73.3443074,71.7753882 73.063167,71.9073963 C72.7820267,72.0423756 72.4537464,72.1098652 72.0766276,72.112412 C71.7029063,72.1098652 71.3742014,72.0423756 71.0900883,71.9073963 C70.8093726,71.7753882 70.5732486,71.5924446 70.3846892,71.3649323 C70.1965545,71.1348732 70.0530116,70.8734038 69.9578825,70.5843444 C69.8648768,70.2918892 69.8168876,69.9858512 69.8168876,69.6683527 C69.8168876,69.3542499 69.8648768,69.0507587 69.9604306,68.7583036 C70.0585324,68.4662729 70.1995273,68.2022567 70.3902101,67.9692264 C70.5817423,67.7387429 70.8148935,67.5532524 71.0985819,67.4157264 C71.3797223,67.2811715 71.7058791,67.2107106 72.0766276,67.2077394 Z M72.0596403,65.3371299 C71.3967096,65.3396767 70.8008789,65.4547062 70.2725728,65.6796717 C69.741294,65.9046373 69.2915543,66.2136465 68.917833,66.6122175 C68.5441117,67.0086661 68.2570257,67.4662375 68.0603974,67.9887517 C67.8607962,68.511266 67.7626943,69.070284 67.7597216,69.6683527 C67.7626943,70.2698171 67.8607962,70.831382 68.0548765,71.3538962 C68.2515049,71.8764105 68.535618,72.3373775 68.9063666,72.7304305 C69.2805126,73.1264547 69.7328003,73.4354639 70.2640792,73.6604294 C70.7979061,73.8819992 71.4022305,73.9970288 72.0766276,74 C72.7535729,73.9970288 73.3583219,73.8819992 73.8925736,73.6604294 C74.4259758,73.4354639 74.8816611,73.1264547 75.2558071,72.7304305 C75.6286791,72.3373775 75.915765,71.8764105 76.1123934,71.3538962 C76.3094464,70.831382 76.4105211,70.2698171 76.4105211,69.6683527 C76.4075483,69.070284 76.3064737,68.511266 76.1043244,67.9887517 C75.8987777,67.4662375 75.6095683,67.0086661 75.2273533,66.6122175 C74.8481111,66.2136465 74.3894531,65.9046373 73.8556261,65.6796717 C73.3217992,65.4547062 72.7234204,65.3396767 72.0596403,65.3371299 Z M64,73.8145096 L66.2083533,73.8145096 L66.2083533,62 L64,62 L64,73.8145096 Z"/>
  </g>
</svg>
