<svg xmlns="http://www.w3.org/2000/svg" viewBox="0 0 135 47"><title>Logo Holdex Black </title><g id="Layer_2" data-name="Layer 2"><g id="Layer_1-2" data-name="Layer 1"><g id="Page-1"><g id="Landing-Holdex-Shorter"><g id="Footer"><g id="Logo"><g id="Shape"><path d="M22.27,28.22C21.6,27,20.79,25.49,20,24c.79,1.46,1.57,2.88,2.22,4.09A1,1,0,0,1,22.27,28.22Z"/><path d="M23.95,31.34,16.06,45.91A2,2,0,0,1,14.29,47H2A2,2,0,0,1,.27,45.91a2.32,2.32,0,0,1,0-2.17L7,31.34.27,18.93a2.32,2.32,0,0,1,0-2.17A2,2,0,0,1,2,15.67H14.3a1.93,1.93,0,0,1,1.48.69l0,0a2.12,2.12,0,0,1,.26.38l.5.9L20,24c.81,1.51,1.62,3,2.29,4.24a2.33,2.33,0,0,1-.07,2,2,2,0,0,1-1.77,1.09Z"/><path d="M23.95,31.34H20.43a2,2,0,0,0,1.77-1.09,2.33,2.33,0,0,0,.07-2Z"/></g><path id="Holdex" d="M72.49,31.83a.78.78,0,0,1-.13.55,1,1,0,0,1-.59.12H69.81a1,1,0,0,1-.59-.12.78.78,0,0,1-.14-.55V25H62.5v6.8a.78.78,0,0,1-.13.55,1,1,0,0,1-.59.12H59.82a1,1,0,0,1-.59-.12.78.78,0,0,1-.14-.55V15.71a.78.78,0,0,1,.14-.55,1,1,0,0,1,.59-.12h1.94a1,1,0,0,1,.59.12.78.78,0,0,1,.13.55v6.53h6.59V15.71a.78.78,0,0,1,.14-.55,1,1,0,0,1,.59-.12h1.94a1,1,0,0,1,.59.12.78.78,0,0,1,.13.55Zm8.59-1.65A2.65,2.65,0,0,0,82.19,30a2.08,2.08,0,0,0,.69-.54,2.72,2.72,0,0,0,.47-1.26,14,14,0,0,0,.12-2v-.57a13.68,13.68,0,0,0-.12-2,2.7,2.7,0,0,0-.47-1.24,1.82,1.82,0,0,0-.69-.55,3.66,3.66,0,0,0-2.24,0,1.82,1.82,0,0,0-.69.55,2.7,2.7,0,0,0-.47,1.24,13.68,13.68,0,0,0-.12,2v.57a14,14,0,0,0,.12,2,2.72,2.72,0,0,0,.47,1.26A2.08,2.08,0,0,0,80,30,2.65,2.65,0,0,0,81.07,30.18Zm0-11.15a7.14,7.14,0,0,1,2.58.4,4.26,4.26,0,0,1,1.71,1.19,5,5,0,0,1,1.07,2.09,11.32,11.32,0,0,1,.31,2.77v.81a11.27,11.27,0,0,1-.31,2.78,5,5,0,0,1-1.07,2.08,4.5,4.5,0,0,1-1.73,1.17,8.07,8.07,0,0,1-5.13,0,4.5,4.5,0,0,1-1.73-1.17,5,5,0,0,1-1.07-2.08,11.27,11.27,0,0,1-.31-2.78v-.81a11.32,11.32,0,0,1,.31-2.77,5,5,0,0,1,1.07-2.09,4.26,4.26,0,0,1,1.71-1.19A7.14,7.14,0,0,1,81.07,19Zm11.56,9.88a1.06,1.06,0,0,0,.18.69.77.77,0,0,0,.61.2h.81a.68.68,0,0,1,.5.14.79.79,0,0,1,.12.51v1.4a.73.73,0,0,1-.14.51.68.68,0,0,1-.49.13H92.41a4.82,4.82,0,0,1-1.35-.15,2.2,2.2,0,0,1-.86-.5,2.42,2.42,0,0,1-.59-1,5.68,5.68,0,0,1-.19-1.63V14.9a.73.73,0,0,1,.15-.54,1,1,0,0,1,.61-.14h1.7a1,1,0,0,1,.61.14.73.73,0,0,1,.15.54ZM104.83,24a3.74,3.74,0,0,0-.15-1.22,1.51,1.51,0,0,0-.39-.62,2.09,2.09,0,0,0-.72-.42,3.34,3.34,0,0,0-1.09-.15,3,3,0,0,0-1.17.2,1.92,1.92,0,0,0-.77.58,2.51,2.51,0,0,0-.55,1.22,11.17,11.17,0,0,0-.12,1.84v.84a11.25,11.25,0,0,0,.13,2,2.55,2.55,0,0,0,.51,1.16,1.65,1.65,0,0,0,.73.54,3.29,3.29,0,0,0,1.13.16,3.9,3.9,0,0,0,1.22-.15,1.88,1.88,0,0,0,.73-.45,1.56,1.56,0,0,0,.41-.8,5.77,5.77,0,0,0,.11-1.2Zm3.21,3.7a7.54,7.54,0,0,1-.28,2.31,3.37,3.37,0,0,1-.93,1.44,4.77,4.77,0,0,1-1.77.93,9.22,9.22,0,0,1-2.69.34,9.46,9.46,0,0,1-2.55-.28,4.21,4.21,0,0,1-1.63-.85,4.14,4.14,0,0,1-1.21-2,11.09,11.09,0,0,1-.38-3.15V25.37a10,10,0,0,1,.38-3,4.8,4.8,0,0,1,1.16-1.94A5.53,5.53,0,0,1,102.21,19a5.24,5.24,0,0,1,1.44.19,4.16,4.16,0,0,1,1.12.49h.05V14.9a.73.73,0,0,1,.15-.54,1,1,0,0,1,.61-.14h1.7a1,1,0,0,1,.61.14.73.73,0,0,1,.15.54Zm13.39-1.08a1,1,0,0,1-.15.61.74.74,0,0,1-.58.18H114a2.88,2.88,0,0,0,.68,2.16,2,2,0,0,0,.84.39,6.32,6.32,0,0,0,1.54.15,8,8,0,0,0,1.51-.16,7,7,0,0,0,1.4-.41.63.63,0,0,1,.43-.05q.19.05.32.49l.35,1.3a.6.6,0,0,1,0,.46.88.88,0,0,1-.47.3,11.46,11.46,0,0,1-3.92.7,9.44,9.44,0,0,1-2.74-.34,4.26,4.26,0,0,1-1.8-1,4.43,4.43,0,0,1-1.09-2,12.89,12.89,0,0,1-.31-3.09v-.73A12.44,12.44,0,0,1,111,22.7a5,5,0,0,1,.93-2,4,4,0,0,1,1.71-1.23,7.24,7.24,0,0,1,2.63-.42,7,7,0,0,1,2.27.31,4.38,4.38,0,0,1,1.54.9,3.62,3.62,0,0,1,.58.69,3.89,3.89,0,0,1,.43.93,7.09,7.09,0,0,1,.27,1.26,13.08,13.08,0,0,1,.09,1.69Zm-5.29-5a2,2,0,0,0-1.54.54,2.19,2.19,0,0,0-.54,1.08,7.53,7.53,0,0,0-.16,1.67h4q.35,0,.35-.38a8.51,8.51,0,0,0-.11-1.48,1.81,1.81,0,0,0-.4-.92,1.4,1.4,0,0,0-.59-.39A3.08,3.08,0,0,0,116.14,21.59Zm18.76,10.31a.45.45,0,0,1,.07.41q-.07.19-.53.19h-2.16a1.12,1.12,0,0,1-.57-.09,1.16,1.16,0,0,1-.3-.42l-1.94-4.35q-.27-.57-.4-.57h-.32q-.13,0-.4.57l-2,4.35a.9.9,0,0,1-.28.42,1.2,1.2,0,0,1-.58.09h-2.16q-.46,0-.53-.19a.45.45,0,0,1,.07-.41L126,26a.52.52,0,0,0,0-.51l-3-5.59a.45.45,0,0,1-.07-.41q.07-.19.53-.19h2.11a1.12,1.12,0,0,1,.57.09,1.16,1.16,0,0,1,.3.42l1.86,4,.2.38a.22.22,0,0,0,.2.14h.32a.24.24,0,0,0,.22-.14l.22-.38,1.89-4a1.16,1.16,0,0,1,.3-.42,1.12,1.12,0,0,1,.57-.09h2.11q.46,0,.53.19a.45.45,0,0,1-.07.41l-3.08,5.59a.52.52,0,0,0,0,.51Z"/></g></g></g></g><g id="Shape-2" data-name="Shape"><path d="M18.15,18.78c.33.62.71,1.3,1.09,2-.37-.66-.71-1.29-1-1.87A1,1,0,0,1,18.15,18.78Z"/><path d="M40.15,28.07a2.32,2.32,0,0,1,0,2.17,2,2,0,0,1-1.77,1.09H26.12a2,2,0,0,1-1.51-.71,2.12,2.12,0,0,1-.26-.38l-.17-.3-.33-.6L20.44,23l-.61-1.13c-.18-.34-.36-.68-.55-1a.3.3,0,0,0,0-.08c-.38-.72-.76-1.4-1.09-2l-1.68-3.12,7.9-14.57A2,2,0,0,1,26.13,0H38.38a2,2,0,0,1,1.77,1.09,2.32,2.32,0,0,1,0,2.17l-6.72,12.4Z"/></g></g></g></svg>