<svg xmlns="http://www.w3.org/2000/svg" viewBox="0 0 1753.71 437.7"><defs><style>.cls-1{fill:#00bfe6;}.cls-2{fill:#060f28;}.cls-3{fill:#8b8b8b;}</style></defs><title>Artboard 15 copy</title><g id="Layer_2" data-name="Layer 2"><path class="cls-1" d="M368.09,8a96.83,96.83,0,0,0-93,123.72,160.47,160.47,0,1,0,60,64.18A96.84,96.84,0,1,0,368.09,8ZM192.26,364a94.7,94.7,0,1,1,94.69-94.68A94.68,94.68,0,0,1,192.26,364ZM368.09,166.21a61.44,61.44,0,1,1,61.46-61.42A61.43,61.43,0,0,1,368.09,166.21Z"/><path class="cls-1" d="M548.42,218.9H529.36V127.09h19.06Z"/><path class="cls-1" d="M566,127.09h20.11l36.45,64v-64h17.88V218.9H621.3l-37.38-65.15V218.9H566Z"/><path class="cls-1" d="M658.49,127.21H724v16.13H677.55v21.12h40.68v15.95H677.55v38.5H658.49Z"/><path class="cls-1" d="M753.91,218.9H734.85V127.09h19.06Z"/><path class="cls-1" d="M771.54,127.09h20.11l36.45,64v-64H846V218.9H826.8l-37.38-65.15V218.9H771.54Z"/><path class="cls-1" d="M881.48,218.9H862.42V127.09h19.06Z"/><path class="cls-1" d="M966.14,127.09v16.26H938.67V218.9H919.36V143.34H891.76V127.09Z"/><path class="cls-1" d="M1029.73,127.09h21.74l-30.71,57.39V218.9h-19.19V184.47l-31.77-57.39h22.61l19.06,40Z"/><path class="cls-2" d="M594,289.11a23.36,23.36,0,0,1,4.21,14q0,8.41-4.25,13.52a21.92,21.92,0,0,1-7,5.23,20.46,20.46,0,0,1,10.61,8.1,24.3,24.3,0,0,1,3.58,13.46,26.85,26.85,0,0,1-4.09,14.64,25.28,25.28,0,0,1-16.88,11.83,63.55,63.55,0,0,1-13,1.25H525.83V279.33h44.37Q587,279.58,594,289.11Zm-49.85,6.17v20.24h22.32a18.45,18.45,0,0,0,9.71-2.27q3.73-2.27,3.73-8.07,0-6.41-4.93-8.47a34.6,34.6,0,0,0-10.85-1.43Zm0,35.44V355.2h22.29q6,0,9.3-1.62,6-3,6-11.46,0-7.16-5.85-9.84a23.22,23.22,0,0,0-9.17-1.56Z"/><path class="cls-2" d="M617.65,279.33h19.19v75.31h45.85v16.51h-65Z"/><path class="cls-2" d="M766.27,363q-10.4,10.72-30.09,10.71T706.1,363q-14-13.14-14-37.87,0-25.23,14-37.87,10.4-10.71,30.09-10.71t30.09,10.71q13.89,12.65,13.89,37.87Q780.16,349.84,766.27,363Zm-12-14q6.7-8.41,6.7-23.92t-6.7-23.89q-6.7-8.44-18.1-8.44T718,301.19q-6.79,8.41-6.79,23.92T718,349q6.79,8.41,18.19,8.41T754.28,349Z"/><path class="cls-2" d="M803.57,288.92q11.09-11.34,28.22-11.34,22.92,0,33.52,15.2,5.85,8.53,6.29,17.13H852.42q-1.83-6.6-4.7-10-5.13-6-15.19-6a18.72,18.72,0,0,0-16.17,8.44q-5.92,8.44-5.92,23.89t6.25,23.14a19.57,19.57,0,0,0,15.87,7.69q9.87,0,15.05-6.6,2.86-3.55,4.75-10.65h19.06q-2.47,15-12.6,24.42t-26,9.41q-19.6,0-30.81-12.71t-11.22-35Q790.81,301.94,803.57,288.92Z"/><path class="cls-2" d="M887.24,279.33h18.87v37.83l35.47-37.83h24.79L928.7,317.09l39.61,54.05H943.64l-28.29-40.08-9.24,9.37v30.71H887.24Z"/><path class="cls-2" d="M987.82,288.92q11.09-11.34,28.22-11.34,22.92,0,33.52,15.2,5.85,8.53,6.29,17.13h-19.19q-1.83-6.6-4.7-10-5.13-6-15.19-6a18.72,18.72,0,0,0-16.17,8.44q-5.92,8.44-5.92,23.89t6.25,23.14a19.57,19.57,0,0,0,15.87,7.69q9.87,0,15.05-6.6,2.86-3.55,4.75-10.65h19.06q-2.47,15-12.6,24.42t-26,9.41q-19.6,0-30.81-12.71t-11.22-35Q975.07,301.94,987.82,288.92Z"/><path class="cls-2" d="M1071.06,371.15V279.33h19.06v35h35.69v-35h19.06v91.82h-19.06v-41h-35.69v41Z"/><path class="cls-2" d="M1189.56,279.33h21.71l32.48,91.82h-20.8l-6.06-18.87h-33.81l-6.22,18.87h-20.07Zm-1.26,57.12h23.51l-11.6-36.13Z"/><path class="cls-2" d="M1272.94,371.15h-19.06V279.33h19.06Z"/><path class="cls-2" d="M1290.56,279.33h20.11l36.45,64v-64H1365v91.82h-19.18L1308.44,306v65.15h-17.88Z"/><path class="cls-3" d="M1405.56,279.64H1418v80.6h45.91v10.9h-58.3Z"/><path class="cls-3" d="M1503.21,279.64h14l33.21,91.5h-13.58l-9.55-27.41h-35.9l-9.92,27.41h-12.71Zm20.55,54-14.09-40.43L1495,333.65Z"/><path class="cls-3" d="M1561.28,279.64h39.56q16.18,0,23,9.59a22.07,22.07,0,0,1,4,13.08q0,8.66-4.92,14.2a24.05,24.05,0,0,1-7.35,5.36q7,2.68,10.53,6,6.17,6,6.17,16.51a25.41,25.41,0,0,1-5.58,16q-8.34,10.71-26.51,10.71h-38.92Zm34.93,38.68q7.93,0,12.34-2.18,6.92-3.42,6.92-12.33t-7.36-12.08Q1604,290,1595.77,290h-22.34v28.34Zm4.19,42.23q11.51,0,16.41-6.6a16.51,16.51,0,0,0,3.08-10.09q0-10-9-13.58-4.78-1.93-12.64-1.93h-24.84v32.2Z"/><path class="cls-3" d="M1654.78,341.62q.42,7.79,3.54,12.64,5.94,9.1,20.94,9.09a35.83,35.83,0,0,0,12.24-2q10.68-3.86,10.68-13.83,0-7.48-4.53-10.65t-14.36-5.42l-12-2.8q-11.77-2.74-16.65-6-8.45-5.73-8.45-17.13,0-12.33,8.3-20.24t23.52-7.91q14,0,23.79,6.95t9.79,22.21h-11.65q-.9-7.35-3.82-11.27-5.44-7.16-18.45-7.16-10.51,0-15.11,4.61a14.71,14.71,0,0,0-4.6,10.71q0,6.73,5.43,9.84,3.56,2,16.11,5l12.43,2.93q9,2.12,13.88,5.79,8.45,6.42,8.45,18.62,0,15.2-10.78,21.74t-25.06,6.54q-16.65,0-26.06-8.72t-9.23-23.48Z"/></g></svg>